<svg xmlns="http://www.w3.org/2000/svg" viewBox="0 0 760 430" width="760" height="430" role="img" aria-label="Propriedades do sistema — 1TDSPB">
  <defs>
    <linearGradient id="ptb" x1="0" y1="0" x2="0" y2="1">
      <stop offset="0" stop-color="#3D95FF"/>
      <stop offset="0.1" stop-color="#0A6CF5"/>
      <stop offset="0.5" stop-color="#0853E0"/>
      <stop offset="1" stop-color="#0C4FD4"/>
    </linearGradient>
  </defs>
  <rect x="0" y="0" width="760" height="430" rx="8" fill="#0831D9"/>
  <rect x="3" y="3" width="754" height="424" rx="6" fill="#ECE9D8"/>
  <rect x="3" y="3" width="754" height="30" rx="6" fill="url(#ptb)"/>
  <rect x="3" y="20" width="754" height="13" fill="#0C4FD4"/>
  <text x="16" y="23" font-family="Tahoma, Verdana, sans-serif" font-size="13" font-weight="700" fill="#fff">Propriedades do sistema</text>
  <g transform="translate(700,8)">
    <rect width="21" height="18" rx="2" fill="#3C8DFF" stroke="#fff" stroke-width="0.7"/>
    <rect y="12" x="5" width="11" height="2" fill="#fff"/>
    <rect x="26" width="21" height="18" rx="2" fill="#E15A4C" stroke="#fff" stroke-width="0.7"/>
    <path d="M31 7 L42 16 M42 7 L31 16" stroke="#fff" stroke-width="1.8" stroke-linecap="round"/>
  </g>

  <g font-family="Tahoma, Verdana, sans-serif" font-size="12">
    <rect x="16" y="44" width="88" height="24" fill="#ECE9D8" stroke="#808080"/>
    <rect x="16" y="44" width="88" height="2" fill="#F0A11A"/>
    <text x="60" y="60" text-anchor="middle" fill="#000">Geral</text>
    <rect x="104" y="46" width="88" height="22" fill="#D4D0C8" stroke="#808080"/>
    <text x="148" y="61" text-anchor="middle" fill="#000">Hardware</text>
    <rect x="192" y="46" width="88" height="22" fill="#D4D0C8" stroke="#808080"/>
    <text x="236" y="61" text-anchor="middle" fill="#000">Avançado</text>
  </g>

  <rect x="16" y="68" width="728" height="300" fill="#ECE9D8" stroke="#808080"/>
  <g transform="translate(36,92)">
    <rect width="72" height="72" rx="6" fill="#0058E6"/>
    <path d="M14 22 Q26 16 38 20 L36 36 Q24 32 12 36 Z" fill="#F35325"/>
    <path d="M40 19 Q52 13 62 17 L60 33 Q48 29 38 33 Z" fill="#81BC06"/>
    <path d="M12 40 Q24 36 36 40 L34 56 Q22 52 10 56 Z" fill="#05A6F0"/>
    <path d="M38 37 Q50 33 60 37 L58 53 Q46 49 36 53 Z" fill="#FFBA08"/>
  </g>

  <g font-family="Tahoma, Verdana, sans-serif" font-size="13" fill="#000">
    <text x="128" y="112" font-size="16" font-weight="700">Sistema</text>
    <text x="128" y="136">Microsoft Windows XP Professional</text>
    <text x="128" y="156">Versão 5.1 (Build 2600.xpsp_sp3) — 1TDSPB Edition</text>
    <line x1="36" y1="180" x2="720" y2="180" stroke="#808080"/>
    <line x1="36" y1="181" x2="720" y2="181" stroke="#fff"/>
    <text x="36" y="210">Turma:</text><text x="200" y="210" font-weight="700">1TDSPB</text>
    <text x="36" y="232">Instituição:</text><text x="200" y="232">FIAP</text>
    <text x="36" y="254">Curso:</text><text x="200" y="254">Análise e Desenvolvimento de Sistemas</text>
    <text x="36" y="276">Ano letivo:</text><text x="200" y="276">2026 — 1º ano</text>
    <text x="36" y="298">Processador:</text><text x="200" y="298">Café 4.2 GHz (dual-shot)</text>
    <text x="36" y="320">Memória RAM:</text><text x="200" y="320">404 MB (sono não encontrado)</text>
    <text x="36" y="342">Projeto em destaque:</text><text x="200" y="342" fill="#003399" text-decoration="underline">conecta-campus</text>
  </g>

  <g font-family="Tahoma, Verdana, sans-serif" font-size="13" fill="#000">
    <rect x="496" y="384" width="116" height="28" fill="#ECE9D8" stroke="#003C74" stroke-width="1.5"/>
    <text x="554" y="403" text-anchor="middle">OK</text>
    <rect x="624" y="384" width="116" height="28" fill="#ECE9D8" stroke="#003C74"/>
    <text x="682" y="403" text-anchor="middle">Cancelar</text>
  </g>
</svg>
