<svg xmlns="http://www.w3.org/2000/svg" viewBox="0 0 560 260" width="560" height="260" role="img" aria-label="Desligar o computador">
  <defs>
    <linearGradient id="sdtop" x1="0" y1="0" x2="0" y2="1">
      <stop offset="0" stop-color="#2F62D8"/>
      <stop offset="1" stop-color="#1B45B7"/>
    </linearGradient>
    <linearGradient id="sdbot" x1="0" y1="0" x2="0" y2="1">
      <stop offset="0" stop-color="#3C6FE0"/>
      <stop offset="1" stop-color="#1B45B7"/>
    </linearGradient>
    <radialGradient id="btnY" cx="40%" cy="35%" r="70%">
      <stop offset="0" stop-color="#FFE68A"/>
      <stop offset="1" stop-color="#D89A00"/>
    </radialGradient>
    <radialGradient id="btnR" cx="40%" cy="35%" r="70%">
      <stop offset="0" stop-color="#FF9A8A"/>
      <stop offset="1" stop-color="#C21C0E"/>
    </radialGradient>
    <radialGradient id="btnG" cx="40%" cy="35%" r="70%">
      <stop offset="0" stop-color="#B6F08F"/>
      <stop offset="1" stop-color="#2E8B1E"/>
    </radialGradient>
  </defs>

  <rect width="560" height="260" rx="6" fill="#1B45B7"/>
  <rect x="2" y="2" width="556" height="46" rx="5" fill="url(#sdtop)"/>
  <rect x="2" y="48" width="556" height="150" fill="#ECE9D8"/>
  <rect x="2" y="198" width="556" height="60" rx="5" fill="url(#sdbot)"/>

  <text x="18" y="32" font-family="Tahoma, 'Trebuchet MS', Verdana, sans-serif" font-size="17" font-weight="700" fill="#fff">Desligar o computador</text>
  <g transform="translate(470,10)">
    <path d="M4 10 Q14 6 24 9 L22 24 Q12 21 3 24 Z" fill="#F35325"/>
    <path d="M27 8 Q37 4 46 7 L44 22 Q34 19 25 22 Z" fill="#81BC06"/>
    <path d="M3 27 Q13 24 23 27 L21 42 Q11 39 2 42 Z" fill="#05A6F0"/>
    <path d="M26 25 Q36 22 45 25 L43 40 Q33 37 24 40 Z" fill="#FFBA08"/>
    <text x="52" y="22" font-family="Tahoma, Verdana, sans-serif" font-size="12" fill="#fff">Windows<tspan fill="#F0A11A" font-size="9" dx="2" dy="-3">xp</tspan></text>
  </g>

  <g font-family="Tahoma, Verdana, sans-serif" font-size="12" fill="#000" text-anchor="middle">
    <g transform="translate(120,84)">
      <circle cx="0" cy="26" r="26" fill="url(#btnY)" stroke="#8A6200"/>
      <path d="M-9 34 Q0 14 9 34 Z" fill="#fff" opacity="0.9"/>
      <rect x="-3" y="20" width="6" height="14" fill="#fff"/>
      <text x="0" y="74" font-weight="700">Em espera</text>
      <text x="0" y="90" font-size="10" fill="#444">Pausa para o café</text>
    </g>
    <g transform="translate(280,84)">
      <circle cx="0" cy="26" r="26" fill="url(#btnR)" stroke="#7A0F06"/>
      <circle cx="0" cy="26" r="11" fill="none" stroke="#fff" stroke-width="3"/>
      <rect x="-1.5" y="10" width="3" height="14" fill="#fff"/>
      <text x="0" y="74" font-weight="700">Desativar</text>
      <text x="0" y="90" font-size="10" fill="#444">Fim do semestre</text>
    </g>
    <g transform="translate(440,84)">
      <circle cx="0" cy="26" r="26" fill="url(#btnG)" stroke="#1E5A12"/>
      <path d="M-11 26 A11 11 0 1 1 6 16" fill="none" stroke="#fff" stroke-width="3" stroke-linecap="round"/>
      <path d="M6 9 L10 20 L-1 19 Z" fill="#fff"/>
      <text x="0" y="74" font-weight="700">Reiniciar</text>
      <text x="0" y="90" font-size="10" fill="#444">git pull antes da aula</text>
    </g>
  </g>

  <g transform="translate(452,214)">
    <rect width="92" height="26" rx="2" fill="#ECE9D8" stroke="#003C74" stroke-width="1.5"/>
    <text x="46" y="18" text-anchor="middle" font-family="Tahoma, Verdana, sans-serif" font-size="12" fill="#000">Cancelar</text>
  </g>
  <text x="18" y="232" font-family="Tahoma, Verdana, sans-serif" font-size="12" fill="#fff">1TDSPB &#8212; feito pela turma, para a turma.</text>
</svg>
